<?xml version="1.0" standalone="no"?>
<!DOCTYPE svg PUBLIC "-//W3C//DTD SVG 20010904//EN"
 "http://www.w3.org/TR/2001/REC-SVG-20010904/DTD/svg10.dtd">
<svg version="1.0" xmlns="http://www.w3.org/2000/svg"
 width="108.000000pt" height="108.000000pt" viewBox="0 0 108.000000 108.000000"
 preserveAspectRatio="xMidYMid meet">
<metadata>
Created by potrace 1.14, written by Peter Selinger 2001-2017
</metadata>
<g transform="translate(0.000000,108.000000) scale(0.100000,-0.100000)"
fill="#000000" stroke="none">
<path d="M398 1057 c-93 -40 -146 -93 -184 -185 -63 -155 11 -338 166 -411 79
-37 192 -37 270 0 71 34 126 90 159 159 37 79 37 192 0 270 -74 155 -260 230
-411 167z"/>
<path d="M87 213 c-39 -10 -51 -109 -17 -143 25 -25 61 -26 90 -2 33 26 33
108 0 134 -22 18 -38 20 -73 11z m67 -41 c15 -29 12 -66 -7 -89 -12 -16 -49
-17 -65 -1 -15 15 -16 72 -2 99 16 29 57 24 74 -9z"/>
<path d="M227 213 c-9 -17 1 -134 13 -148 18 -22 77 -19 90 4 13 25 13 151 0
151 -6 0 -10 -30 -10 -70 0 -59 -3 -71 -20 -80 -34 -18 -57 16 -55 84 2 51 -7
79 -18 59z"/>
<path d="M390 135 c0 -50 4 -85 10 -85 6 0 10 35 10 85 0 50 -4 85 -10 85 -6
0 -10 -35 -10 -85z"/>
<path d="M450 210 c0 -5 21 -10 46 -10 l46 0 -46 -64 c-25 -36 -46 -69 -46
-75 0 -7 23 -11 55 -11 30 0 55 5 55 10 0 6 -20 10 -45 10 l-45 0 45 62 c25
34 45 68 45 75 0 9 -17 13 -55 13 -30 0 -55 -4 -55 -10z"/>
<path d="M661 141 c-17 -44 -31 -83 -31 -86 0 -14 16 -3 25 18 7 15 19 22 42
24 25 1 32 -3 37 -23 4 -13 11 -24 16 -24 6 0 10 2 10 4 0 11 -54 152 -60 159
-5 5 -22 -27 -39 -72z m48 -11 c1 -9 -8 -16 -19 -17 -24 -2 -23 -5 -8 37 10
30 12 32 19 14 4 -10 8 -26 8 -34z"/>
<path d="M790 135 c0 -50 4 -85 10 -85 6 0 10 13 10 30 0 25 4 30 34 36 27 4
37 13 45 35 14 39 -14 69 -64 69 l-35 0 0 -85z m80 31 c0 -23 -17 -36 -46 -36
-18 0 -19 66 -1 73 21 8 47 -13 47 -37z"/>
<path d="M937 213 c-11 -11 -8 -163 3 -163 6 0 10 13 10 29 0 23 5 30 27 36
16 4 34 11 40 17 20 16 16 66 -6 78 -22 11 -64 13 -74 3z m71 -43 c4 -24 -12
-40 -40 -40 -14 0 -18 8 -18 33 0 19 3 36 6 40 12 12 49 -11 52 -33z"/>
<path d="M90 33 c0 -14 83 -31 106 -22 20 8 20 9 -11 13 -11 2 -37 7 -57 11
-23 4 -38 3 -38 -2z"/>
</g>
</svg>
